<svg width="31" height="30" viewBox="0 0 31 30" fill="none" xmlns="http://www.w3.org/2000/svg">
<path d="M14.25 4.99998H5.5C4.83696 4.99998 4.20107 5.26337 3.73223 5.73221C3.26339 6.20105 3 6.83694 3 7.49998V25C3 25.663 3.26339 26.2989 3.73223 26.7677C4.20107 27.2366 4.83696 27.5 5.5 27.5H23C23.663 27.5 24.2989 27.2366 24.7678 26.7677C25.2366 26.2989 25.5 25.663 25.5 25V16.25M23.625 3.12498C24.1223 2.6277 24.7967 2.34833 25.5 2.34833C26.2033 2.34833 26.8777 2.6277 27.375 3.12498C27.8723 3.62226 28.1517 4.29672 28.1517 4.99998C28.1517 5.70324 27.8723 6.3777 27.375 6.87498L15.5 18.75L10.5 20L11.75 15L23.625 3.12498Z" stroke="#343A40" stroke-width="2.5" stroke-linecap="round" stroke-linejoin="round"/>
</svg>
