<svg width="30" height="30" viewBox="0 0 30 30" fill="none" xmlns="http://www.w3.org/2000/svg">
<path d="M15 19.0909C16.1364 19.0909 17.1023 18.6932 17.8977 17.8977C18.6932 17.1023 19.0909 16.1364 19.0909 15C19.0909 13.8636 18.6932 12.8977 17.8977 12.1023C17.1023 11.3068 16.1364 10.9091 15 10.9091C13.8636 10.9091 12.8977 11.3068 12.1023 12.1023C11.3068 12.8977 10.9091 13.8636 10.9091 15C10.9091 16.1364 11.3068 17.1023 12.1023 17.8977C12.8977 18.6932 13.8636 19.0909 15 19.0909ZM15 21.8182C13.1136 21.8182 11.5057 21.1534 10.1761 19.8239C8.84659 18.4943 8.18182 16.8864 8.18182 15C8.18182 13.1136 8.84659 11.5057 10.1761 10.1761C11.5057 8.84659 13.1136 8.18182 15 8.18182C16.8864 8.18182 18.4943 8.84659 19.8239 10.1761C21.1534 11.5057 21.8182 13.1136 21.8182 15C21.8182 16.8864 21.1534 18.4943 19.8239 19.8239C18.4943 21.1534 16.8864 21.8182 15 21.8182ZM5.45455 16.3636H0V13.6364H5.45455V16.3636ZM30 16.3636H24.5455V13.6364H30V16.3636ZM13.6364 5.45455V0H16.3636V5.45455H13.6364ZM13.6364 30V24.5455H16.3636V30H13.6364ZM7.36364 9.20455L3.92045 5.89773L5.86364 3.88636L9.13636 7.29545L7.36364 9.20455ZM24.1364 26.1136L20.8295 22.6705L22.6364 20.7955L26.0795 24.1023L24.1364 26.1136ZM20.7955 7.36364L24.1023 3.92045L26.1136 5.86364L22.7045 9.13636L20.7955 7.36364ZM3.88636 24.1364L7.32955 20.8295L9.20455 22.6364L5.89773 26.0795L3.88636 24.1364Z" fill="#343A40"/>
</svg>
